PathFileType	4	(X/Y/Z)	C:/Users/opensim2020/Desktop/walking_exp_matlab/subject06_walking16_straight_02.trc	
DataRate	CameraRate	NumFrames	NumMarkers	Units	OrigDataRate	OrigDataStartFrame	OrigNumFrames	
100.00	100.00	4	51	mm	100.00	2095	283	
Frame#	Time	LFHD			RFHD			LBHD			RBHD			C7			T10			CLAV			STRN			RBAK			LSHO			LUPA			LELB			LFRM			LWRA			LWRB			LFIN			RSHO			RUPA			RELB			RFRM			RWRA			RWRB			RFIN			LASI			RASI			LPSI			RPSI			LTHI			LKNE			LTIB			LANK			LHEE			LTOE			RTHI			RKNE			RTIB			RANK			RHEE			RTOE			*39			*40			*41			*42			*43			*44			*45			*46			*47			*48			*49			*50			
		X1	Y1	Z1	X2	Y2	Z2	X3	Y3	Z3	X4	Y4	Z4	X5	Y5	Z5	X6	Y6	Z6	X7	Y7	Z7	X8	Y8	Z8	X9	Y9	Z9	X10	Y10	Z10	X11	Y11	Z11	X12	Y12	Z12	X13	Y13	Z13	X14	Y14	Z14	X15	Y15	Z15	X16	Y16	Z16	X17	Y17	Z17	X18	Y18	Z18	X19	Y19	Z19	X20	Y20	Z20	X21	Y21	Z21	X22	Y22	Z22	X23	Y23	Z23	X24	Y24	Z24	X25	Y25	Z25	X26	Y26	Z26	X27	Y27	Z27	X28	Y28	Z28	X29	Y29	Z29	X30	Y30	Z30	X31	Y31	Z31	X32	Y32	Z32	X33	Y33	Z33	X34	Y34	Z34	X35	Y35	Z35	X36	Y36	Z36	X37	Y37	Z37	X38	Y38	Z38	X39	Y39	Z39	X40	Y40	Z40	X41	Y41	Z41	X42	Y42	Z42	X43	Y43	Z43	X44	Y44	Z44	X45	Y45	Z45	X46	Y46	Z46	X47	Y47	Z47	X48	Y48	Z48	X49	Y49	Z49	X50	Y50	Z50	X51	Y51	Z51	

142	1.410	1471.38147	334.74936	1679.04041	1340.23169	338.41107	1663.43164	1476.67029	466.02444	1619.80603	1348.47876	468.29349	1610.10010	1417.19531	464.92505	1463.24915	1402.07300	493.67685	1134.63135	1421.86511	354.72314	1386.43604	1431.10010	316.15036	1209.58398	1332.10620	529.81635	1292.12976	1580.71045	419.87137	1417.39624	1650.06702	432.66229	1214.25024	1658.87195	440.55682	1102.09399	1678.85181	415.52588	953.66974	1635.37170	353.34387	840.49530	1671.21802	415.65234	833.98010	1670.98352	372.41714	753.32092	1258.31348	388.75360	1417.49182	1166.64978	425.07562	1219.90967	1153.90283	419.00742	1098.32263	1134.77051	409.17203	978.64093	1164.19458	360.49710	835.54626	1121.98669	412.62314	840.62402	1120.59363	380.02533	762.34918	1530.89563	332.42609	972.25586	1311.22290	309.45126	974.82288	1487.05920	485.66742	1003.45502	1319.86780	461.12885	1007.06775	1580.19287	362.39880	659.15283	1557.21631	328.12680	500.89484	1558.91357	498.37305	325.43765	1530.71436	611.91797	193.43182	1482.70020	650.81323	202.32692	1539.38635	523.58929	77.66940	1259.80237	363.63098	640.47699	1288.28882	364.33237	516.45282	1282.97546	428.68732	256.90485	1323.84094	467.90842	72.67980	1359.20959	517.48206	49.33355	1352.42480	319.27060	38.86441	1413.46387	437.93259	1711.60022																																	 
143	1.420	1471.37390	327.41937	1678.78320	1340.13916	331.05341	1663.28223	1476.21814	458.76218	1619.51196	1348.08923	460.97934	1609.93030	1416.52124	457.76404	1463.03333	1401.11523	486.70706	1134.40747	1421.49792	347.62982	1386.15247	1430.59900	309.20935	1209.30078	1331.03186	522.53595	1291.94910	1580.14539	413.30392	1417.12756	1649.51550	427.94376	1214.20520	1658.33618	436.97888	1102.11633	1678.28882	413.50388	953.44666	1634.66272	352.31168	839.65692	1670.57996	414.82190	833.78571	1670.27100	372.25900	752.70679	1257.82764	381.33789	1417.41858	1166.21143	417.68680	1219.81592	1153.26892	411.14542	1098.25403	1134.27124	400.62305	978.60516	1163.95032	350.80173	835.97498	1121.74792	403.19965	840.61700	1120.50342	370.09998	762.55603	1530.17834	325.25406	972.49707	1310.54163	302.70206	974.16107	1486.45703	478.67841	1003.36353	1319.19580	454.32153	1006.58368	1580.24536	352.08392	660.36853	1556.93396	316.00229	502.32611	1557.88660	481.86139	322.11261	1528.96423	590.69849	186.22032	1480.45190	629.94116	193.42039	1539.63611	498.33014	74.97547	1259.68567	358.57211	639.66632	1288.09644	359.50897	515.72009	1282.90833	426.23749	256.54941	1323.76733	467.46524	72.64105	1360.15051	516.26709	48.91542	1352.18677	318.68637	38.14781	1413.28430	430.72852	1711.37158																																	 
144	1.430	1471.30884	320.41833	1678.33740	1340.07983	323.55789	1663.07458	1476.08679	451.79105	1619.20972	1347.77966	453.58640	1609.81335	1415.93970	450.50919	1462.72424	1400.11780	479.67700	1134.11267	1421.13855	340.53351	1385.82544	1430.13147	302.27145	1209.00342	1330.08301	515.34808	1291.75073	1579.63892	406.76895	1416.73779	1648.93164	423.22943	1213.96655	1657.63135	433.43832	1101.97607	1677.92859	411.59491	953.11804	1633.97046	351.26215	838.83148	1669.74341	413.82352	833.46875	1669.54626	372.01682	752.04590	1257.37524	373.89587	1417.24512	1165.42126	409.72821	1219.80469	1152.64478	403.27621	1098.10486	1133.86584	392.02426	978.52985	1164.07190	341.59244	836.21411	1121.68359	393.69141	840.50098	1120.58398	360.04379	762.83936	1529.52759	318.09528	972.59772	1309.92065	296.03177	973.47607	1485.99915	471.73227	1003.23907	1318.67944	447.58963	1006.04962	1580.56396	342.59698	660.74890	1556.70154	304.17438	503.72006	1557.06067	465.10983	318.36685	1527.65198	569.23242	178.78760	1478.67395	608.17035	183.99661	1539.71753	472.14542	71.84541	1259.65564	353.41855	638.79785	1288.63074	355.35861	514.72498	1282.80200	423.89517	256.16409	1323.73047	466.83423	72.72292	1359.86633	516.03687	49.34007	1352.03870	318.31888	37.56950	1413.15906	423.46420	1711.10046																																	 
145	1.440	1471.32593	313.22928	1677.86646	1340.01672	316.19904	1662.76099	1475.82605	444.64471	1618.81458	1347.41382	446.21722	1609.52197	1415.44775	443.35248	1462.41138	1399.23535	472.69925	1133.74548	1420.79688	333.34467	1385.43579	1429.72327	295.12442	1208.56506	1329.08557	508.07443	1291.42334	1579.18921	400.14203	1416.27087	1648.44995	418.34769	1213.73181	1657.16724	429.67444	1101.86548	1676.79126	409.06577	952.71521	1633.23450	350.06137	837.90259	1668.94543	412.80139	833.08264	1668.74390	371.61917	751.28381	1256.93738	366.42984	1417.03064	1164.92151	402.32437	1219.57568	1152.00500	395.43674	1097.90417	1133.50964	383.43497	978.37378	1164.13782	331.70050	836.66296	1121.75830	384.05432	840.36780	1120.84985	349.73685	762.89056	1528.69690	310.91833	972.66522	1309.24023	289.29294	972.73517	1485.61133	464.74432	1003.03546	1318.22754	440.91046	1005.46051	1581.01965	330.97797	662.80957	1556.58374	292.58652	504.98648	1556.33826	447.98242	314.12894	1526.38098	546.75519	170.73293	1476.90088	585.29742	174.04066	1539.74841	445.08075	68.74784	1259.53198	348.12473	637.99066	1288.14929	350.40073	513.82886	1282.54639	421.66943	255.81584	1323.51526	466.62762	72.77688	1359.78809	515.92352	49.70962	1351.89539	318.14795	37.06789	1413.03625	416.13794	1710.78174																																	 
